# xmcd
# 
# Track frame offsets:
#     150
#     15352
#     43795
#     55890
#     69375
#     80227
#     92780
#     114815
#     129320
#     149980
#     163977
#     177152
#     188012
#     201117
# 
# Disc length: 2891
# 
# Revision: 2
# Processed by: cddbd v1.5.2PL0 Copyright (c) Steve Scherf et al.
# Submitted via: fre:ac v1.0.31
# 
DISCID=c40b490e
DTITLE=Roots of Rhythm - Sophisticated Ladies
DYEAR=1999
DGENRE=R&B
TTITLE0=Ella Fitzgerald  - The Lady Is a Tramp
TTITLE1=Dinah Washington - I Get a Kick Out of You
TTITLE2=Big Maybelle - Candy
TTITLE3=Etta James - Trust in Me
TTITLE4=Aretha Franklin - Respect
TTITLE5=Mary Wells - Two Lovers
TTITLE6=Teh Staple Singes - Respect Yourself
TTITLE7=Gladys Knight and the Pips - If I Were Your Woman
TTITLE8=Mahalia Jackson - I Have a Friend Above All Others
TTITLE9=Billie Holiday - The Man I Love
TTITLE10=Lena Horne - I Ain't Got Nothin' but the Blues
TTITLE11=Sarah Vaughan - Brokenhearted Melody
TTITLE12=Fontella Bass - Rescue Me
TTITLE13=Diana Ross and the Supremes - Someday We'll Be Together
EXTD=
EXTT0=
EXTT1=
EXTT2=
EXTT3=
EXTT4=
EXTT5=
EXTT6=
EXTT7=
EXTT8=
EXTT9=
EXTT10=
EXTT11=
EXTT12=
EXTT13=
PLAYORDER=
